<svg id="Layer_1" data-name="Layer 1" xmlns="http://www.w3.org/2000/svg" xmlns:xlink="http://www.w3.org/1999/xlink" viewBox="0 0 401.96 399.23"><defs><style>.cls-1{fill:url(#radial-gradient);}.cls-2,.cls-4{fill:none;}.cls-2{stroke:#ee9cff;stroke-width:7px;opacity:0.58;}.cls-2,.cls-3,.cls-4,.cls-5{stroke-miterlimit:10;}.cls-3,.cls-4,.cls-5{stroke:#eca628;stroke-width:2px;}.cls-5{fill:#fff;}</style><radialGradient id="radial-gradient" cx="197.86" cy="276.96" r="91.62" gradientTransform="translate(-233.04 -403.77) scale(2.19 2.18)" gradientUnits="userSpaceOnUse"><stop offset="0" stop-color="#fbf2e3"/><stop offset="0.07" stop-color="#faf0df"/><stop offset="0.44" stop-color="#f8e7cb"/><stop offset="0.69" stop-color="#f7e4c4"/><stop offset="0.95" stop-color="#dfe1a1"/><stop offset="1" stop-color="#d6d887"/></radialGradient></defs><ellipse class="cls-1" cx="200.98" cy="199.62" rx="200.98" ry="199.62"/><path class="cls-2" d="M249.61,377.27c-.7.4-1.18.69-1.67,1a81.92,81.92,0,0,1-8.76,4.07c-2.24.9-4.54,1.54-6.84,2.25-.78.24-1.53.57-2.31.83a7,7,0,0,1-1,.23c-1.95.39-3.89.81-5.85,1.16-1,.17-2.06.14-3.05.36a42.5,42.5,0,0,1-5.83.68c-1.06.09-2.11.17-3.17.21a29.71,29.71,0,0,1-9.79-1.34,24.07,24.07,0,0,1-6.39-3.15c-1.48-1-2.67-2.28-4.12-3.29a21.18,21.18,0,0,1-2.2-2c-.71-.66-1.47-1.28-2.14-2-1.19-1.21-2.36-2.43-3.47-3.7a35.41,35.41,0,0,1-4.39-7.14,39.41,39.41,0,0,1-3.29-10.19,5.09,5.09,0,0,1-.07-1.74,18,18,0,0,1,1.55-6.06,20.86,20.86,0,0,1,4-5.36c.74-.72,1.49-1.43,2.22-2.16a8.63,8.63,0,0,0,.55-.67,9,9,0,0,0-1-.81,21,21,0,0,1-4.61-3.59c-1.31-1.27-2.64-2.51-3.92-3.8a24.34,24.34,0,0,1-4.23-5.56,22.48,22.48,0,0,1-2.18-5.4c-.36-1.52-.79-3.05-1-4.6a15.93,15.93,0,0,1,.23-5.15c.31-1.54.65-3.08,1.06-4.59a16.3,16.3,0,0,1,1.92-4.5,25.63,25.63,0,0,1,3.8-4.85,18.51,18.51,0,0,1,3.34-2.9,10.31,10.31,0,0,0,1.08-.92,9.37,9.37,0,0,1,1.14-.85c1.61-.93,3.23-1.86,4.88-2.74,1.09-.57,2.24-1.06,3.37-1.58.61-.27,1.21-.57,1.85-.79,1.78-.61,3.57-1.23,5.38-1.78.88-.27,1.82-.37,2.73-.57.65-.14,1.3-.31,2-.46a19.29,19.29,0,0,1,5.09-.33,21.43,21.43,0,0,1,5,.78c2.06.59,4.11,1.23,6.17,1.83.86.25,1.73.44,2.6.67a1.5,1.5,0,0,1,.51.24c.67.54,1.33,1.09,2,1.67-.16.29-.42.28-.69.11a11.91,11.91,0,0,0-3.12-1.19c-1.83-.58-3.66-1.17-5.45-1.85a21.26,21.26,0,0,0-7-1.26c-1,0-2,0-3,0a2,2,0,0,0-.48,0L195,285.8c-.38.08-.77.11-1.14.2a11.05,11.05,0,0,0-1.28.37c-1.08.39-2.15.8-3.22,1.22-.8.31-1.58.66-2.38,1a69.12,69.12,0,0,0-6.14,3.25l-.09.05c-.87,1.1-2.36,1.4-3.37,2.32L175,296.35c-.29.28-.56.59-.83.89-.59.68-1.2,1.35-1.77,2.05a9.6,9.6,0,0,0-1.12,1.6,36,36,0,0,0-2.32,5,25.42,25.42,0,0,0-1.2,8.48c.05,1.4.5,2.78.68,4.18a18.08,18.08,0,0,0,1.46,4.48,5.6,5.6,0,0,0,1.27,2.22,5.66,5.66,0,0,1,.86,1.4,27.81,27.81,0,0,0,3.82,4.51,29.91,29.91,0,0,0,2.93,2.92,36.51,36.51,0,0,0,4.7,3.66c1,.56,1.17.57,2.05-.07s1.54-1,2.28-1.53a41.74,41.74,0,0,1,6-3.37c1.75-.87,3.66-1.46,5.51-2.17,1-.39,2-.82,3.06-1.11,2.16-.61,4.23-1.47,6.46-1.87,1.1-.19,2.16-.6,3.26-.82,1.82-.37,3.65-.65,5.48-1,1-.2,1.22-.36,1.35-1.38a31.31,31.31,0,0,1,1.34-5.48,18,18,0,0,1,1.19-2.79c.91-1.8,1.8-3.61,2.85-5.33a31.73,31.73,0,0,1,2.86-3.8,49.86,49.86,0,0,1,5.65-5.41c.72-.61,1.38-1.29,2.12-1.87a13.34,13.34,0,0,1,2.37-1.57,6.08,6.08,0,0,1,4.86-.18,1.31,1.31,0,0,1,.79.95c-.21,0-.38.07-.48,0s-.31-.3-.62,0-.67,0-1-.08a1.93,1.93,0,0,0-1.3,0,12,12,0,0,0-3.72,1.79c-1.62,1.21-3.09,2.56-4.61,3.87a20.17,20.17,0,0,0-2.76,2.94c-.36.46-.94.76-1.26,1.23a28.68,28.68,0,0,0-3.31,5.39c-.38.93-1,1.8-1.42,2.7-.19.39-.33.8-.49,1.2s-.39.9-.59,1.35a2.52,2.52,0,0,0-.21,1.22,4.12,4.12,0,0,1-.47,1.66,3.94,3.94,0,0,0-.32,2.06,3.5,3.5,0,0,1-.1.9.94.94,0,0,0,.94.32,20.52,20.52,0,0,1,6.06,0,16.47,16.47,0,0,1,1.66.39l-.5.31a8.71,8.71,0,0,0,1.32.3,4.8,4.8,0,0,1,2.72,1.28,7.75,7.75,0,0,0,1.25.83,3.73,3.73,0,0,1,1.35,1.27,4.82,4.82,0,0,1,.87,2.39,3.88,3.88,0,0,1-.63,2.44,12.17,12.17,0,0,1-3.35,3.12,37.16,37.16,0,0,1-7.94,3.93l-1.33.52c-.44.17-.59.46-.41.88.37.89.67,1.81,1.11,2.65a49.77,49.77,0,0,0,2.79,4.94,19,19,0,0,0,4.18,4.68c.45.34.83.77,1.26,1.13s.84.66,1.28,1c1,.73,2,1.46,3,2.15.6.41,1.24.76,1.87,1.12a29.46,29.46,0,0,0,2.76,1.5c1.31.57,2.66,1.06,4,1.52s2.8.87,4.21,1.27a19.26,19.26,0,0,0,2.25.51c1,.16,2,.24,3,.35a1.29,1.29,0,0,0,.19,0,10.66,10.66,0,0,1,2.87.13,18.48,18.48,0,0,0,2.89.13c1,0,2,0,3-.08a40.22,40.22,0,0,0,8.23-1.38c2-.58,4.09-1,6.09-1.68,1.55-.49,3-1.15,4.53-1.79,1.16-.51,2.3-1.08,3.43-1.66,2-1,4-2,6-3.13,1.51-.82,3-1.7,4.43-2.6a5.55,5.55,0,0,0,2.21-1.86,2.45,2.45,0,0,1,.61-.59c1-.85,2.05-1.68,3.06-2.52a70.94,70.94,0,0,0,6.72-6.36,35.54,35.54,0,0,0,4.11-5c1.12-1.76,2.37-3.45,3.47-5.21a42.84,42.84,0,0,0,2-3.79,37,37,0,0,0,1.54-3.47c.47-1.26.84-2.56,1.23-3.86.14-.47.19-1,.31-1.44a31.47,31.47,0,0,0,.83-9.9,5.4,5.4,0,0,0-.42-2.8,6.77,6.77,0,0,0-.34-2.82,3.74,3.74,0,0,0-.37-1.05,4.5,4.5,0,0,1-.77-2,.8.8,0,0,0-.16-.42,35.48,35.48,0,0,1-2.6-4.18,34.38,34.38,0,0,0-2.07-2.77c-.85-1-1.77-2-2.68-3a35.45,35.45,0,0,0-4.14-3.58c-1.54-1.26-3.28-2.26-4.9-3.41a26.94,26.94,0,0,0-3.18-1.72,45.44,45.44,0,0,0-6.85-2.91c-1.6-.52-3.18-1.14-4.82-1.55a77.84,77.84,0,0,0-7.75-1.47,56.93,56.93,0,0,0-8.65-.45,18.92,18.92,0,0,0-3.33.46c-1.55.28-3.11.54-4.62.94-1.67.44-3.31,1-4.93,1.57a16.68,16.68,0,0,0-4,1.93,17.77,17.77,0,0,0-4.54,3.78c-.41.57-.91,1.1-1.31,1.69a10.59,10.59,0,0,0-1.95,7,5.64,5.64,0,0,1-.08,2c-.21-.28-.34-.38-.37-.5a8.88,8.88,0,0,1-.14-3.94c.15-.65.09-1.36.27-2a11.36,11.36,0,0,1,2.87-5A32,32,0,0,1,254,280a18.21,18.21,0,0,1,5.85-2.77c.93-.25,1.83-.57,2.75-.86a6.25,6.25,0,0,1,.74-.21c2.19-.45,4.38-.93,6.59-1.32a20.59,20.59,0,0,1,3.15-.23,56.71,56.71,0,0,1,15.49,2c.91.28,1.86.45,2.78.74,1.09.34,2.17.74,3.23,1.16s2.36,1,3.52,1.49c1,.46,2,1,3,1.48a61.15,61.15,0,0,1,8.33,5.3,14.08,14.08,0,0,1,1.5,1.28c1.06,1,2.16,1.93,3.16,3,.75.77,1.28,1.75,2.08,2.48a16.52,16.52,0,0,1,3.06,4.53,43.91,43.91,0,0,1,1.88,4.13,28.58,28.58,0,0,1,1.65,6.81c.11.76.11,1.53.15,2.3a21.32,21.32,0,0,1-.13,5.05c-.32,1.84-.73,3.68-1.09,5.52a24.54,24.54,0,0,1-1.87,5.23,46.06,46.06,0,0,1-2.85,5.43c-.93,1.5-1.83,3-2.78,4.5-.29.47-.68.88-1,1.33-.9,1.19-1.75,2.41-2.69,3.57a28.66,28.66,0,0,1-2,2.12c-1.46,1.46-2.88,3-4.41,4.36s-3,2.54-4.51,3.76c-1.11.87-2.27,1.7-3.45,2.49s-2.12,1.37-3.23,2c-2.49,1.39-5,2.83-7.54,4.07a51,51,0,0,1-7.14,3.23c-.88.27-1.78.49-2.66.76s-1.93.67-2.92.92c-2.24.55-4.5,1-6.79,1.3a36.77,36.77,0,0,1-6.7.4,49.27,49.27,0,0,1-7.87-.67c-2-.4-4-.83-6-1.4a33.69,33.69,0,0,1-5-1.86c-1.75-.82-3.39-1.87-5.06-2.83a37.75,37.75,0,0,1-4.85-3.62,26.45,26.45,0,0,1-3.43-3.59c-1-1.22-1.9-2.56-2.82-3.85a25.05,25.05,0,0,1-2.3-4.34l-.84-1.95c-1.35.27-2.6.54-3.86.76-1.83.33-3.66.73-5.51.9s-3.79.14-5.69.17a23,23,0,0,1-5-.51c-1.1-.23-2.24-.24-3.34-.44s-2.38-.5-3.56-.81c-.86-.23-1.72-.52-2.55-.83-1.77-.65-3.52-1.34-5.28-2l-.35-.15a2.13,2.13,0,0,0-2.66.61,20.44,20.44,0,0,1-2.2,2.27,6.91,6.91,0,0,0-1.33,1.75c-.3.42-.58.87-.91,1.28a7.72,7.72,0,0,0-1.38,2.51,10.41,10.41,0,0,0-.43,1.3,12.27,12.27,0,0,0-.44,4.85c.32,1.6.78,3.17,1.21,4.75.27.95.6,1.89.93,2.82.16.43.43.82.59,1.25a41.08,41.08,0,0,0,2.63,5.11,29.11,29.11,0,0,0,5,6c1.09,1.12,2.24,2.2,3.38,3.28.82.78,1.65,1.55,2.53,2.27.71.57,1.49,1.06,2.25,1.58l2.77,1.84a17.73,17.73,0,0,0,5.7,2.4,6.22,6.22,0,0,0,2.74.32,1,1,0,0,1,.48,0,9.26,9.26,0,0,0,4,.18c.8-.06,1.61,0,2.42-.08,2-.16,3.9-.32,5.85-.56,1.59-.19,3.18-.45,4.75-.74,2.34-.42,4.67-.86,7-1.36a32,32,0,0,0,4-1.06c1.84-.64,3.64-1.37,5.41-2.15,2.15-.95,4.31-1.93,6.39-3s4.2-2.35,6.27-3.59c1-.59,1.88-1.29,2.8-2a2.63,2.63,0,0,0,.49-.56c.61-.9,1-.95,1.82-.23l.23.19c0,.23,0,.44,0,.65-.09.68-.27.81-1,.84a1.75,1.75,0,0,0-.8.2c-1.35.94-2.71,1.87-4,2.9a4.63,4.63,0,0,0-1.7,4.57,7.6,7.6,0,0,0,3.08,5.43,6.15,6.15,0,0,0,3.18,1.38,25.24,25.24,0,0,1,2.51.58c.82.15,1.65.19,2.48.28s1.91.21,2.87.28,2.1.09,3.19.14c.59-4.58.39-9.12,1-13.65l1.66-.28c.07.94.55,1.82-.1,2.69a.39.39,0,0,0,0,.26,5.52,5.52,0,0,1-.2,1.89,21.55,21.55,0,0,0-.22,2.91c-.09,1.29-.21,2.57-.28,3.86,0,.64,0,1.28,0,2,1.58-.08,3,.34,4.49-.16a18.65,18.65,0,0,1,2.74-.45c1.23-.21,2.46-.44,3.69-.67,1.07-.21,2.16-.35,3.19-.65A51.44,51.44,0,0,0,290,385a13.68,13.68,0,0,1,2.21-.64,43.34,43.34,0,0,0,7.39-2.56,8.32,8.32,0,0,1,1.1-.36,32.83,32.83,0,0,0,5.23-2.1c1.19-.6,2.5-1,3.71-1.55,1.49-.7,2.9-1.55,4.39-2.25a70.49,70.49,0,0,0,6.53-3.51c.84-.51,1.63-1.08,2.47-1.59s1.77-1.32,2.68-1.9a18.82,18.82,0,0,0,5.05-4.85c.18-.25.41-.47.68-.78l-.8-.25a6.1,6.1,0,0,0-.73-6.42l-2.18-.28c0-.29-.11-.58-.13-.88a.69.69,0,0,0-.79-.74c-.77,0-1.53.06-2.3.09-.32,0-.64,0-1,0-.74,0-1.47-.08-2.21-.13-.22,0-.44-.07-.66-.11a8.75,8.75,0,0,0-1.23-.2,16,16,0,0,1-6.81-2,4.77,4.77,0,0,1-1.34-1.41c-.22-.3,0-.72.48-.85a10,10,0,0,1,1.86-.4c1.25-.11,2.51-.2,3.76-.2a19.62,19.62,0,0,1,8.09,1.85,10.43,10.43,0,0,1,2.49,1.37,2.34,2.34,0,0,0,1.36.4,27,27,0,0,0,2.84-.24c1.34-.15,2.68-.3,4-.52,1.8-.3,3.63-.55,5.39-1,3.31-.87,6.58-1.86,9.86-2.83q2.53-.75,5-1.58c1-.33,1.95-.79,3-1.08a44.33,44.33,0,0,0,6.1-2.49c.61-.28,1.26-.48,1.86-.76,1.07-.5,2.1-1.06,3.17-1.55a30.5,30.5,0,0,0,6.21-3.87,20.91,20.91,0,0,0,4-3.69,19.62,19.62,0,0,1,1.81-1.85,1.46,1.46,0,0,1,.3-1.52,15.66,15.66,0,0,0,2.24-5.17,27.87,27.87,0,0,0,.58-5.39c.05-1.88.2-3.75.23-5.63a24,24,0,0,0-.74-6.68,23.5,23.5,0,0,0-3-6.66,11.47,11.47,0,0,0-.95-1.16c-1-1.11-1.93-2.21-2.89-3.31-.35-.41-.73-.63-1.21-.23-1-.74-1-.82-.82-1.44-.26-.13-.53-.11-.7-.53s-.84-.9-1.33-1.28a43,43,0,0,0-4.62-3.48,26.32,26.32,0,0,0-7.58-3.35c-1.56-.34-3.11-.75-4.69-1.07a29.06,29.06,0,0,0-3-.41,25.11,25.11,0,0,0-3.24-.25c-1.6,0-3.2.18-4.8.31-1,.08-2,.2-3,.34a16.56,16.56,0,0,0-2,.41,7.73,7.73,0,0,0-1.13.49,1.55,1.55,0,0,0-2.06.77c-.52.85-1.19.85-1.88.12-.21-.21-.56-.5-.51-.67a1.68,1.68,0,0,1,.67-.83c.67-.48,1.41-.85,2.07-1.33,1.12-.81,2.2-1.68,3.3-2.52a18.38,18.38,0,0,1,1.62-1.16,20.11,20.11,0,0,0,4.51-3.72,16.58,16.58,0,0,0,3.93-5.86,6.43,6.43,0,0,0,.3-3.43,13.94,13.94,0,0,0-1.65-4.32c-.25-.45-.39-1-.64-1.43a7.67,7.67,0,0,0-2.08-2.28,2.25,2.25,0,0,1-.46-.33,14.8,14.8,0,0,0-4.1-2.88c-2.73-1.59-5.8-2.24-8.83-3-1.23-.33-2.49-.59-3.74-.84a13.74,13.74,0,0,0-1.44-.1,13.43,13.43,0,0,1-2-.22,20,20,0,0,0-4.29-.48c-1.54,0-3.06-.29-4.6-.38-1.89-.11-3.78-.19-5.67-.18-2.83,0-5.67.06-8.49.21-2,.1-4,.32-6,.59-1.46.19-2.88.59-4.34.78a62.5,62.5,0,0,0-6.82,1.58c-1.28.31-2.55.59-3.83.89a8,8,0,0,0-.9.31c-1,.36-1.93.75-2.91,1.08-.48.16-1,.19-1.5.33-2.06.57-4.12,1.15-6.17,1.76-1,.29-1.94.64-2.9,1a4.55,4.55,0,0,0-.71.47,2.64,2.64,0,0,0-1.95.23c-2.72,1-5.35,2.18-8,3.4a53.85,53.85,0,0,0-6.2,3.52,4.23,4.23,0,0,0-1.78,1.75c-.58.31-1.05.53-1.49.81-.69.44-1.35.94-2,1.39a.91.91,0,0,0-.55,1,1.42,1.42,0,0,1-.65,1.45.8.8,0,0,1-.67.05,3.88,3.88,0,0,1-.93-1,.78.78,0,0,1,0-.74,6.34,6.34,0,0,1,1.17-1.2q2.42-1.77,4.87-3.48c1.74-1.2,3.47-2.42,5.29-3.52a34.28,34.28,0,0,1,3.62-1.71c1.62-.73,3.23-1.51,4.89-2.15,1.33-.52,2.74-.87,4.11-1.3s2.6-.83,3.91-1.23,2.71-.78,4.07-1.18c2.36-.69,4.71-1.41,7.08-2.08,1.1-.31,2.25-.5,3.36-.79s1.95-.61,2.93-.89c.77-.21,1.55-.39,2.34-.53,2.14-.4,4.28-.79,6.43-1.13.95-.15,1.92-.17,2.88-.27s1.84-.25,2.77-.36a15.57,15.57,0,0,1,1.81-.13c3.72,0,7.45-.08,11.17-.09.63,0,1.27.19,1.91.25,1.18.12,2.36.21,3.55.31a9.32,9.32,0,0,0,1.06,0,18.76,18.76,0,0,1,4.09.5c1.52.24,3.07.3,4.6.48a18.57,18.57,0,0,1,2,.4c.78.17,1.57.31,2.34.53s1.63.53,2.44.8c1.12.38,2.23.78,3.37,1.12a8.15,8.15,0,0,1,2.68,1.39c.67.52,1.46.88,2.15,1.38a12.39,12.39,0,0,1,1.78,1.53c.76.8,1.43,1.66,2.11,2.52a6,6,0,0,1,.54.87c.32.56.66,1.12,1,1.69a7.64,7.64,0,0,1,.5,1.09,13.36,13.36,0,0,1,.72,2.19,6.47,6.47,0,0,1,0,4,20.26,20.26,0,0,1-2.43,4.39,27.94,27.94,0,0,1-5.55,5.36c-1.18.85-2.35,1.72-3.51,2.59a2.67,2.67,0,0,0-.78.94,3.69,3.69,0,0,0,.66,0c2.3-.24,4.59-.56,6.9-.74a33,33,0,0,1,6.73.34c1.31.17,2.63.29,3.91.58,1.43.33,2.82.83,4.22,1.26.43.13.85.28,1.27.42a25.08,25.08,0,0,1,7.65,4.18,72.41,72.41,0,0,1,5.93,5,29.61,29.61,0,0,1,5.07,6.26,24.1,24.1,0,0,1,2.7,6.29,29,29,0,0,1,.8,6.88c0,2.75-.45,5.46-.64,8.19a17.46,17.46,0,0,1-1.52,6,46.72,46.72,0,0,1-2.45,4.28,18.6,18.6,0,0,1-4.69,4.84,33.09,33.09,0,0,1-5.75,4c-1.18.6-2.3,1.31-3.48,1.92-.7.37-1.47.63-2.18,1a42.81,42.81,0,0,1-7.23,3c-.91.25-1.75.73-2.66,1-1.86.59-3.74,1.09-5.61,1.66-1.19.35-2.37.78-3.56,1.13s-2.23.58-3.35.85-2.49.62-3.75.83c-1.73.3-3.49.47-5.22.74a10.86,10.86,0,0,0-3.18.71,7.35,7.35,0,0,1-1.52.37c.22.69.4,1.32.61,2s.46,1.28.7,1.91c0,.09.09.22.15.23.75.12.62.69.6,1.15a9,9,0,0,1-1.77,5.44,38,38,0,0,1-2.6,3.07,17.49,17.49,0,0,1-2.09,1.6,4.19,4.19,0,0,0-.54.4,16.92,16.92,0,0,1-3.82,2.76c-1.66.93-3.25,2-4.94,2.86-2.44,1.27-4.94,2.46-7.44,3.64-1.58.75-3.15,1.52-4.79,2.13-3.71,1.4-7.4,2.83-11.24,3.88-2,.56-4,1.23-6.07,1.79-1.14.31-2.31.5-3.47.75a2.37,2.37,0,0,0-.82.23,2.09,2.09,0,0,1-1.38.26,3.18,3.18,0,0,0-1,.17c-1,.26-2,.59-3,.8a26.64,26.64,0,0,1-2.67.32c-.54.06-1.1,0-1.63.11-1.11.16-2.28-.05-3.37.69,0,1.2-.08,2.55-.14,3.9,0,.55-.06,1.1-.13,1.65a88.74,88.74,0,0,0-.27,14.85c.08,1.69,0,3.39.05,5.09.06,3.41.11,6.83.22,10.24.08,2.68.23,5.36.36,8,0,.49.15,1,.18,1.47.24,4.21.47,8.43.72,12.64.05.8.25,1.59.27,2.38.09,3.51.14,7,.2,10.53,0,1.54,0,3.08,0,4.62a10.23,10.23,0,0,1-.18,1.83.86.86,0,0,1-1,.64.9.9,0,0,1-.69-1c.08-.77.15-1.53.18-2.3.06-1.53.12-3.07.12-4.6s-.09-2.77-.14-4.16c0-.76,0-1.53-.08-2.29-.18-3.17-.38-6.33-.57-9.49-.18-2.92-.37-5.84-.53-8.76-.08-1.35-.06-2.71-.12-4.06s-.2-2.94-.3-4.41a2.72,2.72,0,0,1,0-.28c.16-2.34-.14-4.67-.2-7-.06-2.74,0-5.48,0-8.22,0-1.75-.22-3.5-.24-5.25q0-3,.1-6c.15-3,.37-6.08.56-9.12,0-.12,0-.25,0-.37,0-.74-.14-.86-.9-.87-.39,0-.77,0-1.16,0-2-.12-4-.21-6-.41a15.92,15.92,0,0,1-2.72-.6,14.91,14.91,0,0,1-3.49-1.28,7.88,7.88,0,0,1-3.73-4.41,16.66,16.66,0,0,1-.59-1.94,6,6,0,0,1,.14-2.75A12.38,12.38,0,0,0,249.61,377.27Zm72.21-25.56a2.39,2.39,0,0,1-1.81-.64,3.61,3.61,0,0,1,.38-.15l.3-.05a15,15,0,0,0-7.35-.25,6.23,6.23,0,0,0,3.54,1.87l3.74.28c1,.07,2,.15,3,.18.34,0,.75.18,1.06-.17l-1.48-.73,2.78.57a.5.5,0,0,0-.31-.35c-1.07-.39-2.13-.77-3.21-1.14C322,351,321.86,351.12,321.82,351.71Zm-91.08-24.06c-.67-.71-1.35-1-1.92-.71l1.93.69c.18.52-.15.61-.55.56a9.51,9.51,0,0,1-1.41-.28c-.66-.17-1.3-.39-1.95-.59v-.16l1.25-.43a5.61,5.61,0,0,0-2.38-.44,11.38,11.38,0,0,0-4.11.18c-1.24.32-1.7.89-1.68,2a29.88,29.88,0,0,0,.47,6,2.35,2.35,0,0,1,.09.64,18.08,18.08,0,0,0,.8,5c.11.49.3,1,.47,1.49.31-.09.5-.12.68-.18a41.32,41.32,0,0,0,6.18-2.77,23,23,0,0,0,5.53-4.12c.45-.46.93-1,.35-1.64l.88-.45a26,26,0,0,0-1.32-2.58A4.29,4.29,0,0,0,230.74,327.65Zm-12.22-.94c-.89.1-1.63.12-2.35.27-2.26.46-4.5,1-6.76,1.47-.59.13-1.2.22-1.79.36-1.52.35-2.86,1.22-4.43,1.42a.64.64,0,0,0-.18.06c-1.28.48-2.55,1-3.85,1.42a24.55,24.55,0,0,0-4.95,2,9.39,9.39,0,0,1-1.73.81,1.45,1.45,0,0,0-1,.91,11.41,11.41,0,0,0-1.16.45c-1,.6-2.08,1.22-3.12,1.82a7.9,7.9,0,0,0-.91.5c-.5.41-.46.78.09,1.1a3.43,3.43,0,0,0,.44.19c1.31.5,2.6,1.05,3.94,1.49.84.29,1.68.57,2.51.91a23.85,23.85,0,0,0,3,.73,53.77,53.77,0,0,0,8.57,1.22,42.67,42.67,0,0,0,8.38-.24c1.91-.23,3.8-.63,5.69-1a10.52,10.52,0,0,0,1.61-.6,2.85,2.85,0,0,0-.11-.8,15.23,15.23,0,0,1-1-4.2,54.71,54.71,0,0,1-.64-8C218.67,328.28,218.57,327.55,218.52,326.71Zm122.2-44-.07-.1L340,283l.08.12Z" transform="translate(-75.75 -150.91)"/><path class="cls-3" d="M249.61,377.27c-.7.4-1.18.69-1.67,1a81.92,81.92,0,0,1-8.76,4.07c-2.24.9-4.54,1.54-6.84,2.25-.78.24-1.53.57-2.31.83a7,7,0,0,1-1,.23c-1.95.39-3.89.81-5.85,1.16-1,.17-2.06.14-3.05.36a42.5,42.5,0,0,1-5.83.68c-1.06.09-2.11.17-3.17.21a29.71,29.71,0,0,1-9.79-1.34,24.07,24.07,0,0,1-6.39-3.15c-1.48-1-2.67-2.28-4.12-3.29a21.18,21.18,0,0,1-2.2-2c-.71-.66-1.47-1.28-2.14-2-1.19-1.21-2.36-2.43-3.47-3.7a35.41,35.41,0,0,1-4.39-7.14,39.41,39.41,0,0,1-3.29-10.19,5.09,5.09,0,0,1-.07-1.74,18,18,0,0,1,1.55-6.06,20.86,20.86,0,0,1,4-5.36c.74-.72,1.49-1.43,2.22-2.16a8.63,8.63,0,0,0,.55-.67,9,9,0,0,0-1-.81,21,21,0,0,1-4.61-3.59c-1.31-1.27-2.64-2.51-3.92-3.8a24.34,24.34,0,0,1-4.23-5.56,22.48,22.48,0,0,1-2.18-5.4c-.36-1.52-.79-3.05-1-4.6a15.93,15.93,0,0,1,.23-5.15c.31-1.54.65-3.08,1.06-4.59a16.3,16.3,0,0,1,1.92-4.5,25.63,25.63,0,0,1,3.8-4.85,18.51,18.51,0,0,1,3.34-2.9,10.31,10.31,0,0,0,1.08-.92,9.37,9.37,0,0,1,1.14-.85c1.61-.93,3.23-1.86,4.88-2.74,1.09-.57,2.24-1.06,3.37-1.58.61-.27,1.21-.57,1.85-.79,1.78-.61,3.57-1.23,5.38-1.78.88-.27,1.82-.37,2.73-.57.65-.14,1.3-.31,2-.46a19.29,19.29,0,0,1,5.09-.33,21.43,21.43,0,0,1,5,.78c2.06.59,4.11,1.23,6.17,1.83.86.25,1.73.44,2.6.67a1.5,1.5,0,0,1,.51.24c.67.54,1.33,1.09,2,1.67-.16.29-.42.28-.69.11a11.91,11.91,0,0,0-3.12-1.19c-1.83-.58-3.66-1.17-5.45-1.85a21.26,21.26,0,0,0-7-1.26c-1,0-2,0-3,0a2,2,0,0,0-.48,0L195,285.8c-.38.08-.77.11-1.14.2a11.05,11.05,0,0,0-1.28.37c-1.08.39-2.15.8-3.22,1.22-.8.31-1.58.66-2.38,1a69.12,69.12,0,0,0-6.14,3.25l-.09.05c-.87,1.1-2.36,1.4-3.37,2.32L175,296.35c-.29.28-.56.59-.83.89-.59.68-1.2,1.35-1.77,2.05a9.6,9.6,0,0,0-1.12,1.6,36,36,0,0,0-2.32,5,25.42,25.42,0,0,0-1.2,8.48c.05,1.4.5,2.78.68,4.18a18.08,18.08,0,0,0,1.46,4.48,5.6,5.6,0,0,0,1.27,2.22,5.66,5.66,0,0,1,.86,1.4,27.81,27.81,0,0,0,3.82,4.51,29.91,29.91,0,0,0,2.93,2.92,36.51,36.51,0,0,0,4.7,3.66c1,.56,1.17.57,2.05-.07s1.54-1,2.28-1.53a41.74,41.74,0,0,1,6-3.37c1.75-.87,3.66-1.46,5.51-2.17,1-.39,2-.82,3.06-1.11,2.16-.61,4.23-1.47,6.46-1.87,1.1-.19,2.16-.6,3.26-.82,1.82-.37,3.65-.65,5.48-1,1-.2,1.22-.36,1.35-1.38a31.31,31.31,0,0,1,1.34-5.48,18,18,0,0,1,1.19-2.79c.91-1.8,1.8-3.61,2.85-5.33a31.73,31.73,0,0,1,2.86-3.8,49.86,49.86,0,0,1,5.65-5.41c.72-.61,1.38-1.29,2.12-1.87a13.34,13.34,0,0,1,2.37-1.57,6.08,6.08,0,0,1,4.86-.18,1.31,1.31,0,0,1,.79.95c-.21,0-.38.07-.48,0s-.31-.3-.62,0-.67,0-1-.08a1.93,1.93,0,0,0-1.3,0,12,12,0,0,0-3.72,1.79c-1.62,1.21-3.09,2.56-4.61,3.87a20.17,20.17,0,0,0-2.76,2.94c-.36.46-.94.76-1.26,1.23a28.68,28.68,0,0,0-3.31,5.39c-.38.93-1,1.8-1.42,2.7-.19.39-.33.8-.49,1.2s-.39.9-.59,1.35a2.52,2.52,0,0,0-.21,1.22,4.12,4.12,0,0,1-.47,1.66,3.94,3.94,0,0,0-.32,2.06,3.5,3.5,0,0,1-.1.9.94.94,0,0,0,.94.32,20.52,20.52,0,0,1,6.06,0,16.47,16.47,0,0,1,1.66.39l-.5.31a8.71,8.71,0,0,0,1.32.3,4.8,4.8,0,0,1,2.72,1.28,7.75,7.75,0,0,0,1.25.83,3.73,3.73,0,0,1,1.35,1.27,4.82,4.82,0,0,1,.87,2.39,3.88,3.88,0,0,1-.63,2.44,12.17,12.17,0,0,1-3.35,3.12,37.16,37.16,0,0,1-7.94,3.93l-1.33.52c-.44.17-.59.46-.41.88.37.89.67,1.81,1.11,2.65a49.77,49.77,0,0,0,2.79,4.94,19,19,0,0,0,4.18,4.68c.45.34.83.77,1.26,1.13s.84.66,1.28,1c1,.73,2,1.46,3,2.15.6.41,1.24.76,1.87,1.12a29.46,29.46,0,0,0,2.76,1.5c1.31.57,2.66,1.06,4,1.52s2.8.87,4.21,1.27a19.26,19.26,0,0,0,2.25.51c1,.16,2,.24,3,.35a1.29,1.29,0,0,0,.19,0,10.66,10.66,0,0,1,2.87.13,18.48,18.48,0,0,0,2.89.13c1,0,2,0,3-.08a40.22,40.22,0,0,0,8.23-1.38c2-.58,4.09-1,6.09-1.68,1.55-.49,3-1.15,4.53-1.79,1.16-.51,2.3-1.08,3.43-1.66,2-1,4-2,6-3.13,1.51-.82,3-1.7,4.43-2.6a5.55,5.55,0,0,0,2.21-1.86,2.45,2.45,0,0,1,.61-.59c1-.85,2.05-1.68,3.06-2.52a70.94,70.94,0,0,0,6.72-6.36,35.54,35.54,0,0,0,4.11-5c1.12-1.76,2.37-3.45,3.47-5.21a42.84,42.84,0,0,0,2-3.79,37,37,0,0,0,1.54-3.47c.47-1.26.84-2.56,1.23-3.86.14-.47.19-1,.31-1.44a31.47,31.47,0,0,0,.83-9.9,5.4,5.4,0,0,0-.42-2.8,6.77,6.77,0,0,0-.34-2.82,3.74,3.74,0,0,0-.37-1.05,4.5,4.5,0,0,1-.77-2,.8.8,0,0,0-.16-.42,35.48,35.48,0,0,1-2.6-4.18,34.38,34.38,0,0,0-2.07-2.77c-.85-1-1.77-2-2.68-3a35.45,35.45,0,0,0-4.14-3.58c-1.54-1.26-3.28-2.26-4.9-3.41a26.94,26.94,0,0,0-3.18-1.72,45.44,45.44,0,0,0-6.85-2.91c-1.6-.52-3.18-1.14-4.82-1.55a77.84,77.84,0,0,0-7.75-1.47,56.93,56.93,0,0,0-8.65-.45,18.92,18.92,0,0,0-3.33.46c-1.55.28-3.11.54-4.62.94-1.67.44-3.31,1-4.93,1.57a16.68,16.68,0,0,0-4,1.93,17.77,17.77,0,0,0-4.54,3.78c-.41.57-.91,1.1-1.31,1.69a10.59,10.59,0,0,0-1.95,7,5.64,5.64,0,0,1-.08,2c-.21-.28-.34-.38-.37-.5a8.88,8.88,0,0,1-.14-3.94c.15-.65.09-1.36.27-2a11.36,11.36,0,0,1,2.87-5A32,32,0,0,1,254,280a18.21,18.21,0,0,1,5.85-2.77c.93-.25,1.83-.57,2.75-.86a6.25,6.25,0,0,1,.74-.21c2.19-.45,4.38-.93,6.59-1.32a20.59,20.59,0,0,1,3.15-.23,56.71,56.71,0,0,1,15.49,2c.91.28,1.86.45,2.78.74,1.09.34,2.17.74,3.23,1.16s2.36,1,3.52,1.49c1,.46,2,1,3,1.48a61.15,61.15,0,0,1,8.33,5.3,14.08,14.08,0,0,1,1.5,1.28c1.06,1,2.16,1.93,3.16,3,.75.77,1.28,1.75,2.08,2.48a16.52,16.52,0,0,1,3.06,4.53,43.91,43.91,0,0,1,1.88,4.13,28.58,28.58,0,0,1,1.65,6.81c.11.76.11,1.53.15,2.3a21.32,21.32,0,0,1-.13,5.05c-.32,1.84-.73,3.68-1.09,5.52a24.54,24.54,0,0,1-1.87,5.23,46.06,46.06,0,0,1-2.85,5.43c-.93,1.5-1.83,3-2.78,4.5-.29.47-.68.88-1,1.33-.9,1.19-1.75,2.41-2.69,3.57a28.66,28.66,0,0,1-2,2.12c-1.46,1.46-2.88,3-4.41,4.36s-3,2.54-4.51,3.76c-1.11.87-2.27,1.7-3.45,2.49s-2.12,1.37-3.23,2c-2.49,1.39-5,2.83-7.54,4.07a51,51,0,0,1-7.14,3.23c-.88.27-1.78.49-2.66.76s-1.93.67-2.92.92c-2.24.55-4.5,1-6.79,1.3a36.77,36.77,0,0,1-6.7.4,49.27,49.27,0,0,1-7.87-.67c-2-.4-4-.83-6-1.4a33.69,33.69,0,0,1-5-1.86c-1.75-.82-3.39-1.87-5.06-2.83a37.75,37.75,0,0,1-4.85-3.62,26.45,26.45,0,0,1-3.43-3.59c-1-1.22-1.9-2.56-2.82-3.85a25.05,25.05,0,0,1-2.3-4.34l-.84-1.95c-1.35.27-2.6.54-3.86.76-1.83.33-3.66.73-5.51.9s-3.79.14-5.69.17a23,23,0,0,1-5-.51c-1.1-.23-2.24-.24-3.34-.44s-2.38-.5-3.56-.81c-.86-.23-1.72-.52-2.55-.83-1.77-.65-3.52-1.34-5.28-2l-.35-.15a2.13,2.13,0,0,0-2.66.61,20.44,20.44,0,0,1-2.2,2.27,6.91,6.91,0,0,0-1.33,1.75c-.3.42-.58.87-.91,1.28a7.72,7.72,0,0,0-1.38,2.51,10.41,10.41,0,0,0-.43,1.3,12.27,12.27,0,0,0-.44,4.85c.32,1.6.78,3.17,1.21,4.75.27.95.6,1.89.93,2.82.16.43.43.82.59,1.25a41.08,41.08,0,0,0,2.63,5.11,29.11,29.11,0,0,0,5,6c1.09,1.12,2.24,2.2,3.38,3.28.82.78,1.65,1.55,2.53,2.27.71.57,1.49,1.06,2.25,1.58l2.77,1.84a17.73,17.73,0,0,0,5.7,2.4,6.22,6.22,0,0,0,2.74.32,1,1,0,0,1,.48,0,9.26,9.26,0,0,0,4,.18c.8-.06,1.61,0,2.42-.08,2-.16,3.9-.32,5.85-.56,1.59-.19,3.18-.45,4.75-.74,2.34-.42,4.67-.86,7-1.36a32,32,0,0,0,4-1.06c1.84-.64,3.64-1.37,5.41-2.15,2.15-.95,4.31-1.93,6.39-3s4.2-2.35,6.27-3.59c1-.59,1.88-1.29,2.8-2a2.63,2.63,0,0,0,.49-.56c.61-.9,1-.95,1.82-.23l.23.19c0,.23,0,.44,0,.65-.09.68-.27.81-1,.84a1.75,1.75,0,0,0-.8.2c-1.35.94-2.71,1.87-4,2.9a4.63,4.63,0,0,0-1.7,4.57,7.6,7.6,0,0,0,3.08,5.43,6.15,6.15,0,0,0,3.18,1.38,25.24,25.24,0,0,1,2.51.58c.82.15,1.65.19,2.48.28s1.91.21,2.87.28,2.1.09,3.19.14c.59-4.58.39-9.12,1-13.65l1.66-.28c.07.94.55,1.82-.1,2.69a.39.39,0,0,0,0,.26,5.52,5.52,0,0,1-.2,1.89,21.55,21.55,0,0,0-.22,2.91c-.09,1.29-.21,2.57-.28,3.86,0,.64,0,1.28,0,2,1.58-.08,3,.34,4.49-.16a18.65,18.65,0,0,1,2.74-.45c1.23-.21,2.46-.44,3.69-.67,1.07-.21,2.16-.35,3.19-.65A51.44,51.44,0,0,0,290,385a13.68,13.68,0,0,1,2.21-.64,43.34,43.34,0,0,0,7.39-2.56,8.32,8.32,0,0,1,1.1-.36,32.83,32.83,0,0,0,5.23-2.1c1.19-.6,2.5-1,3.71-1.55,1.49-.7,2.9-1.55,4.39-2.25a70.49,70.49,0,0,0,6.53-3.51c.84-.51,1.63-1.08,2.47-1.59s1.77-1.32,2.68-1.9a18.82,18.82,0,0,0,5.05-4.85c.18-.25.41-.47.68-.78l-.8-.25a6.1,6.1,0,0,0-.73-6.42l-2.18-.28c0-.29-.11-.58-.13-.88a.69.69,0,0,0-.79-.74c-.77,0-1.53.06-2.3.09-.32,0-.64,0-1,0-.74,0-1.47-.08-2.21-.13-.22,0-.44-.07-.66-.11a8.75,8.75,0,0,0-1.23-.2,16,16,0,0,1-6.81-2,4.77,4.77,0,0,1-1.34-1.41c-.22-.3,0-.72.48-.85a10,10,0,0,1,1.86-.4c1.25-.11,2.51-.2,3.76-.2a19.62,19.62,0,0,1,8.09,1.85,10.43,10.43,0,0,1,2.49,1.37,2.34,2.34,0,0,0,1.36.4,27,27,0,0,0,2.84-.24c1.34-.15,2.68-.3,4-.52,1.8-.3,3.63-.55,5.39-1,3.31-.87,6.58-1.86,9.86-2.83q2.53-.75,5-1.58c1-.33,1.95-.79,3-1.08a44.33,44.33,0,0,0,6.1-2.49c.61-.28,1.26-.48,1.86-.76,1.07-.5,2.1-1.06,3.17-1.55a30.5,30.5,0,0,0,6.21-3.87,20.91,20.91,0,0,0,4-3.69,19.62,19.62,0,0,1,1.81-1.85,1.46,1.46,0,0,1,.3-1.52,15.66,15.66,0,0,0,2.24-5.17,27.87,27.87,0,0,0,.58-5.39c.05-1.88.2-3.75.23-5.63a24,24,0,0,0-.74-6.68,23.5,23.5,0,0,0-3-6.66,11.47,11.47,0,0,0-.95-1.16c-1-1.11-1.93-2.21-2.89-3.31-.35-.41-.73-.63-1.21-.23-1-.74-1-.82-.82-1.44-.26-.13-.53-.11-.7-.53s-.84-.9-1.33-1.28a43,43,0,0,0-4.62-3.48,26.32,26.32,0,0,0-7.58-3.35c-1.56-.34-3.11-.75-4.69-1.07a29.06,29.06,0,0,0-3-.41,25.11,25.11,0,0,0-3.24-.25c-1.6,0-3.2.18-4.8.31-1,.08-2,.2-3,.34a16.56,16.56,0,0,0-2,.41,7.73,7.73,0,0,0-1.13.49,1.55,1.55,0,0,0-2.06.77c-.52.85-1.19.85-1.88.12-.21-.21-.56-.5-.51-.67a1.68,1.68,0,0,1,.67-.83c.67-.48,1.41-.85,2.07-1.33,1.12-.81,2.2-1.68,3.3-2.52a18.38,18.38,0,0,1,1.62-1.16,20.11,20.11,0,0,0,4.51-3.72,16.58,16.58,0,0,0,3.93-5.86,6.43,6.43,0,0,0,.3-3.43,13.94,13.94,0,0,0-1.65-4.32c-.25-.45-.39-1-.64-1.43a7.67,7.67,0,0,0-2.08-2.28,2.25,2.25,0,0,1-.46-.33,14.8,14.8,0,0,0-4.1-2.88c-2.73-1.59-5.8-2.24-8.83-3-1.23-.33-2.49-.59-3.74-.84a13.74,13.74,0,0,0-1.44-.1,13.43,13.43,0,0,1-2-.22,20,20,0,0,0-4.29-.48c-1.54,0-3.06-.29-4.6-.38-1.89-.11-3.78-.19-5.67-.18-2.83,0-5.67.06-8.49.21-2,.1-4,.32-6,.59-1.46.19-2.88.59-4.34.78a62.5,62.5,0,0,0-6.82,1.58c-1.28.31-2.55.59-3.83.89a8,8,0,0,0-.9.31c-1,.36-1.93.75-2.91,1.08-.48.16-1,.19-1.5.33-2.06.57-4.12,1.15-6.17,1.76-1,.29-1.94.64-2.9,1a4.55,4.55,0,0,0-.71.47,2.64,2.64,0,0,0-1.95.23c-2.72,1-5.35,2.18-8,3.4a53.85,53.85,0,0,0-6.2,3.52,4.23,4.23,0,0,0-1.78,1.75c-.58.31-1.05.53-1.49.81-.69.44-1.35.94-2,1.39a.91.91,0,0,0-.55,1,1.42,1.42,0,0,1-.65,1.45.8.8,0,0,1-.67.05,3.88,3.88,0,0,1-.93-1,.78.78,0,0,1,0-.74,6.34,6.34,0,0,1,1.17-1.2q2.42-1.77,4.87-3.48c1.74-1.2,3.47-2.42,5.29-3.52a34.28,34.28,0,0,1,3.62-1.71c1.62-.73,3.23-1.51,4.89-2.15,1.33-.52,2.74-.87,4.11-1.3s2.6-.83,3.91-1.23,2.71-.78,4.07-1.18c2.36-.69,4.71-1.41,7.08-2.08,1.1-.31,2.25-.5,3.36-.79s1.95-.61,2.93-.89c.77-.21,1.55-.39,2.34-.53,2.14-.4,4.28-.79,6.43-1.13.95-.15,1.92-.17,2.88-.27s1.84-.25,2.77-.36a15.57,15.57,0,0,1,1.81-.13c3.72,0,7.45-.08,11.17-.09.63,0,1.27.19,1.91.25,1.18.12,2.36.21,3.55.31a9.32,9.32,0,0,0,1.06,0,18.76,18.76,0,0,1,4.09.5c1.52.24,3.07.3,4.6.48a18.57,18.57,0,0,1,2,.4c.78.17,1.57.31,2.34.53s1.63.53,2.44.8c1.12.38,2.23.78,3.37,1.12a8.15,8.15,0,0,1,2.68,1.39c.67.52,1.46.88,2.15,1.38a12.39,12.39,0,0,1,1.78,1.53c.76.8,1.43,1.66,2.11,2.52a6,6,0,0,1,.54.87c.32.56.66,1.12,1,1.69a7.64,7.64,0,0,1,.5,1.09,13.36,13.36,0,0,1,.72,2.19,6.47,6.47,0,0,1,0,4,20.26,20.26,0,0,1-2.43,4.39,27.94,27.94,0,0,1-5.55,5.36c-1.18.85-2.35,1.72-3.51,2.59a2.67,2.67,0,0,0-.78.94,3.69,3.69,0,0,0,.66,0c2.3-.24,4.59-.56,6.9-.74a33,33,0,0,1,6.73.34c1.31.17,2.63.29,3.91.58,1.43.33,2.82.83,4.22,1.26.43.13.85.28,1.27.42a25.08,25.08,0,0,1,7.65,4.18,72.41,72.41,0,0,1,5.93,5,29.61,29.61,0,0,1,5.07,6.26,24.1,24.1,0,0,1,2.7,6.29,29,29,0,0,1,.8,6.88c0,2.75-.45,5.46-.64,8.19a17.46,17.46,0,0,1-1.52,6,46.72,46.72,0,0,1-2.45,4.28,18.6,18.6,0,0,1-4.69,4.84,33.09,33.09,0,0,1-5.75,4c-1.18.6-2.3,1.31-3.48,1.92-.7.37-1.47.63-2.18,1a42.81,42.81,0,0,1-7.23,3c-.91.25-1.75.73-2.66,1-1.86.59-3.74,1.09-5.61,1.66-1.19.35-2.37.78-3.56,1.13s-2.23.58-3.35.85-2.49.62-3.75.83c-1.73.3-3.49.47-5.22.74a10.86,10.86,0,0,0-3.18.71,7.35,7.35,0,0,1-1.52.37c.22.69.4,1.32.61,2s.46,1.28.7,1.91c0,.09.09.22.15.23.75.12.62.69.6,1.15a9,9,0,0,1-1.77,5.44,38,38,0,0,1-2.6,3.07,17.49,17.49,0,0,1-2.09,1.6,4.19,4.19,0,0,0-.54.4,16.92,16.92,0,0,1-3.82,2.76c-1.66.93-3.25,2-4.94,2.86-2.44,1.27-4.94,2.46-7.44,3.64-1.58.75-3.15,1.52-4.79,2.13-3.71,1.4-7.4,2.83-11.24,3.88-2,.56-4,1.23-6.07,1.79-1.14.31-2.31.5-3.47.75a2.37,2.37,0,0,0-.82.23,2.09,2.09,0,0,1-1.38.26,3.18,3.18,0,0,0-1,.17c-1,.26-2,.59-3,.8a26.64,26.64,0,0,1-2.67.32c-.54.06-1.1,0-1.63.11-1.11.16-2.28-.05-3.37.69,0,1.2-.08,2.55-.14,3.9,0,.55-.06,1.1-.13,1.65a88.74,88.74,0,0,0-.27,14.85c.08,1.69,0,3.39.05,5.09.06,3.41.11,6.83.22,10.24.08,2.68.23,5.36.36,8,0,.49.15,1,.18,1.47.24,4.21.47,8.43.72,12.64.05.8.25,1.59.27,2.38.09,3.51.14,7,.2,10.53,0,1.54,0,3.08,0,4.62a10.23,10.23,0,0,1-.18,1.83.86.86,0,0,1-1,.64.9.9,0,0,1-.69-1c.08-.77.15-1.53.18-2.3.06-1.53.12-3.07.12-4.6s-.09-2.77-.14-4.16c0-.76,0-1.53-.08-2.29-.18-3.17-.38-6.33-.57-9.49-.18-2.92-.37-5.84-.53-8.76-.08-1.35-.06-2.71-.12-4.06s-.2-2.94-.3-4.41a2.72,2.72,0,0,1,0-.28c.16-2.34-.14-4.67-.2-7-.06-2.74,0-5.48,0-8.22,0-1.75-.22-3.5-.24-5.25q0-3,.1-6c.15-3,.37-6.08.56-9.12,0-.12,0-.25,0-.37,0-.74-.14-.86-.9-.87-.39,0-.77,0-1.16,0-2-.12-4-.21-6-.41a15.92,15.92,0,0,1-2.72-.6,14.91,14.91,0,0,1-3.49-1.28,7.88,7.88,0,0,1-3.73-4.41,16.66,16.66,0,0,1-.59-1.94,6,6,0,0,1,.14-2.75A12.38,12.38,0,0,0,249.61,377.27Zm72.21-25.56a2.39,2.39,0,0,1-1.81-.64,3.61,3.61,0,0,1,.38-.15l.3-.05a15,15,0,0,0-7.35-.25,6.23,6.23,0,0,0,3.54,1.87l3.74.28c1,.07,2,.15,3,.18.34,0,.75.18,1.06-.17l-1.48-.73,2.78.57a.5.5,0,0,0-.31-.35c-1.07-.39-2.13-.77-3.21-1.14C322,351,321.86,351.12,321.82,351.71Zm-91.08-24.06c-.67-.71-1.35-1-1.92-.71l1.93.69c.18.52-.15.61-.55.56a9.51,9.51,0,0,1-1.41-.28c-.66-.17-1.3-.39-1.95-.59v-.16l1.25-.43a5.61,5.61,0,0,0-2.38-.44,11.38,11.38,0,0,0-4.11.18c-1.24.32-1.7.89-1.68,2a29.88,29.88,0,0,0,.47,6,2.35,2.35,0,0,1,.09.64,18.08,18.08,0,0,0,.8,5c.11.49.3,1,.47,1.49.31-.09.5-.12.68-.18a41.32,41.32,0,0,0,6.18-2.77,23,23,0,0,0,5.53-4.12c.45-.46.93-1,.35-1.64l.88-.45a26,26,0,0,0-1.32-2.58A4.29,4.29,0,0,0,230.74,327.65Zm-12.22-.94c-.89.1-1.63.12-2.35.27-2.26.46-4.5,1-6.76,1.47-.59.13-1.2.22-1.79.36-1.52.35-2.86,1.22-4.43,1.42a.64.64,0,0,0-.18.06c-1.28.48-2.55,1-3.85,1.42a24.55,24.55,0,0,0-4.95,2,9.39,9.39,0,0,1-1.73.81,1.45,1.45,0,0,0-1,.91,11.41,11.41,0,0,0-1.16.45c-1,.6-2.08,1.22-3.12,1.82a7.9,7.9,0,0,0-.91.5c-.5.41-.46.78.09,1.1a3.43,3.43,0,0,0,.44.19c1.31.5,2.6,1.05,3.94,1.49.84.29,1.68.57,2.51.91a23.85,23.85,0,0,0,3,.73,53.77,53.77,0,0,0,8.57,1.22,42.67,42.67,0,0,0,8.38-.24c1.91-.23,3.8-.63,5.69-1a10.52,10.52,0,0,0,1.61-.6,2.85,2.85,0,0,0-.11-.8,15.23,15.23,0,0,1-1-4.2,54.71,54.71,0,0,1-.64-8C218.67,328.28,218.57,327.55,218.52,326.71Zm122.2-44-.07-.1L340,283l.08.12Z" transform="translate(-75.75 -150.91)"/><path class="cls-3" d="M208.64,289.41c0,.46,0,.78,0,1.09a9.8,9.8,0,0,0,.17,1c1,.37,1,.37,1.23,1.29a8.83,8.83,0,0,0,3.68.53c1.83-.07,3.66-.15,5.48-.38a24.33,24.33,0,0,0,3.73-.88c1.38-.39,2.76-.82,4.1-1.3a35.29,35.29,0,0,0,7.06-3.53c1-.63,1.86-1.41,2.85-2s1.9-1.35,2.83-2.06c2.12-1.6,4.28-3.13,6.4-4.72.86-.64,1.69-1.32,2.49-2a5.56,5.56,0,0,0,1.67-3.15,2.58,2.58,0,0,0-.18-1.25.89.89,0,0,0-.63-.46c-.48-.07-.92-.46-1.47-.2-.08,0-.35-.3-.49-.57a4.32,4.32,0,0,1,2.72-.19,1.84,1.84,0,0,1,1.16,1.27,3.76,3.76,0,0,1-.19,2.72,12.73,12.73,0,0,1-1.51,2.44,11.07,11.07,0,0,1-2,1.58c-.91.68-1.91,1.27-2.74,2a39.42,39.42,0,0,1-3.87,2.82c-1,.72-2,1.49-3,2.22a34.24,34.24,0,0,1-5.61,3.54c-.83.38-1.56,1-2.39,1.35s-1.85.7-2.77,1.06c-.62.24-1.21.58-1.85.77a36.14,36.14,0,0,1-9.24,1.7,18.61,18.61,0,0,1-4-.1,16.4,16.4,0,0,1-2.78-.7A2.5,2.5,0,0,1,208.64,289.41Z" transform="translate(-75.75 -150.91)"/><path class="cls-3" d="M243.84,299.11a1.37,1.37,0,0,1,1.28.94c-.63.85-.79.84-1.6-.16Z" transform="translate(-75.75 -150.91)"/><path class="cls-4" d="M218.52,326.71c0,.84.15,1.57.14,2.29a54.71,54.71,0,0,0,.64,8,15.23,15.23,0,0,0,1,4.2,2.85,2.85,0,0,1,.11.8,10.52,10.52,0,0,1-1.61.6c-1.89.38-3.78.78-5.69,1a42.67,42.67,0,0,1-8.38.24,53.77,53.77,0,0,1-8.57-1.22,23.85,23.85,0,0,1-3-.73c-.83-.34-1.67-.62-2.51-.91-1.34-.44-2.63-1-3.94-1.49a3.43,3.43,0,0,1-.44-.19c-.55-.32-.59-.69-.09-1.1a7.9,7.9,0,0,1,.91-.5c1-.6,2.07-1.22,3.12-1.82a11.41,11.41,0,0,1,1.16-.45,1.45,1.45,0,0,1,1-.91,9.39,9.39,0,0,0,1.73-.81,24.55,24.55,0,0,1,4.95-2c1.3-.42,2.57-.94,3.85-1.42a.64.64,0,0,1,.18-.06c1.57-.2,2.91-1.07,4.43-1.42.59-.14,1.2-.23,1.79-.36,2.26-.49,4.5-1,6.76-1.47C216.89,326.83,217.63,326.81,218.52,326.71Z" transform="translate(-75.75 -150.91)"/><path class="cls-4" d="M230.74,327.65a4.29,4.29,0,0,1,3.3,2.14,26,26,0,0,1,1.32,2.58l-.88.45c.58.67.1,1.18-.35,1.64a23,23,0,0,1-5.53,4.12,41.32,41.32,0,0,1-6.18,2.77c-.18.06-.37.09-.68.18-.17-.52-.36-1-.47-1.49a18.08,18.08,0,0,1-.8-5,2.35,2.35,0,0,0-.09-.64,29.88,29.88,0,0,1-.47-6c0-1.07.44-1.64,1.68-2a11.38,11.38,0,0,1,4.11-.18,5.61,5.61,0,0,1,2.38.44l-1.25.43v.16c.65.2,1.29.42,1.95.59a9.51,9.51,0,0,0,1.41.28c.4.05.73,0,.55-.56Z" transform="translate(-75.75 -150.91)"/><path class="cls-5" d="M323.16,352.05l1.48.73c-.31.35-.72.18-1.06.17-1,0-2-.11-3-.18l-3.74-.28a6.23,6.23,0,0,1-3.54-1.87,15,15,0,0,1,7.35.25l-.3.05a3.61,3.61,0,0,0-.38.15,2.39,2.39,0,0,0,1.81.64l0,0,1.38.38Z" transform="translate(-75.75 -150.91)"/><path class="cls-5" d="M321.82,351.71c0-.59.16-.73.6-.58,1.08.37,2.14.75,3.21,1.14a.5.5,0,0,1,.31.35l-2.78-.57,0,0-1.38-.38Z" transform="translate(-75.75 -150.91)"/><path class="cls-5" d="M230.75,327.63l-1.93-.69c.57-.25,1.25,0,1.92.71Z" transform="translate(-75.75 -150.91)"/><path class="cls-5" d="M340.72,282.75l-.6.39L340,283l.61-.37Z" transform="translate(-75.75 -150.91)"/><path class="cls-3" d="M321.8,351.69l1.38.38Z" transform="translate(-75.75 -150.91)"/></svg>